<?xml version="1.0" encoding="UTF-8" standalone="no"?>
<svg
   xmlns:dc="http://purl.org/dc/elements/1.1/"
   xmlns:cc="http://creativecommons.org/ns#"
   xmlns:rdf="http://www.w3.org/1999/02/22-rdf-syntax-ns#"
   xmlns:svg="http://www.w3.org/2000/svg"
   xmlns="http://www.w3.org/2000/svg"
   xmlns:sodipodi="http://sodipodi.sourceforge.net/DTD/sodipodi-0.dtd"
   xmlns:inkscape="http://www.inkscape.org/namespaces/inkscape"
   viewBox="0 0 125 90"
   height="90"
   width="125"
   xml:space="preserve"
   version="1.1"
   id="svg2"
   inkscape:version="0.91 r13725"
   sodipodi:docname="elasticio-favicon.svg"
   inkscape:export-filename="/Users/tigran/Desktop/elasticio0favicon-big.png"
   inkscape:export-xdpi="90"
   inkscape:export-ydpi="90"><sodipodi:namedview
     pagecolor="#ffffff"
     bordercolor="#666666"
     borderopacity="1"
     objecttolerance="10"
     gridtolerance="10"
     guidetolerance="10"
     inkscape:pageopacity="0"
     inkscape:pageshadow="2"
     inkscape:window-width="1661"
     inkscape:window-height="963"
     id="namedview30"
     showgrid="false"
     inkscape:zoom="4.87118"
     inkscape:cx="54.540653"
     inkscape:cy="24.997528"
     inkscape:window-x="0"
     inkscape:window-y="0"
     inkscape:window-maximized="0"
     inkscape:current-layer="svg2" /><metadata
     id="metadata8"><rdf:RDF><cc:Work
         rdf:about=""><dc:format>image/svg+xml</dc:format><dc:type
           rdf:resource="http://purl.org/dc/dcmitype/StillImage" /><dc:title></dc:title></cc:Work></rdf:RDF></metadata><defs
     id="defs6"><clipPath
       id="clipPath16"
       clipPathUnits="userSpaceOnUse"><path
         id="path18"
         d="M 0,100 500,100 500,0 0,0 0,100 Z"
         inkscape:connector-curvature="0" /></clipPath></defs><flowRoot
     xml:space="preserve"
     id="flowRoot4408"
     style="font-style:normal;font-weight:normal;font-size:40px;line-height:125%;font-family:sans-serif;letter-spacing:0px;word-spacing:0px;fill:#000000;fill-opacity:1;stroke:none;stroke-width:1px;stroke-linecap:butt;stroke-linejoin:miter;stroke-opacity:1"
     transform="translate(0,-35)"><flowRegion
       id="flowRegion4410"><rect
         id="rect4412"
         width="588.15503"
         height="120.08733"
         x="100.98254"
         y="-179.31223" /></flowRegion><flowPara
       id="flowPara4414" /></flowRoot><g
     id="g4420"
     transform="matrix(1.0257462,0,0,-1.0257462,-259.92701,96.253973)"><g
       transform="translate(347.1523,10.583)"
       id="g56"><path
         id="path58"
         style="fill:#e64e39;fill-opacity:1;fill-rule:nonzero;stroke:none"
         d="m 0,0 c 13.078,0 23.725,10.641 23.725,23.724 0,10.034 -6.488,18.998 -15.975,22.377 2.301,15.183 -5.688,23.986 -12.953,28.737 -2.906,1.902 -8.318,3.934 -14.785,3.934 -6.09,0 -17.08,-1.92 -24.309,-14.33 -3.194,2.004 -6.622,3.017 -10.228,3.017 -5.731,0 -9.848,-2.555 -11.351,-3.656 C -73.804,58.031 -74.216,49.97 -73.83,45.946 -83.453,42.302 -89.355,33.923 -89.355,23.724 -89.355,10.641 -78.714,0 -65.631,0 L 0,0 Z"
         inkscape:connector-curvature="0" /></g><g
       transform="translate(327.1641,91.3105)"
       id="g60"><path
         id="path62"
         style="fill:#e64e39;fill-opacity:1;fill-rule:nonzero;stroke:none"
         d="m 0,0 c -6.241,0 -17.284,-1.877 -24.981,-13.652 -3.012,1.552 -6.211,2.338 -9.556,2.338 -6.304,0 -10.85,-2.817 -12.505,-4.027 -7.833,-5.707 -8.991,-13.438 -8.84,-18.158 -9.602,-4.187 -15.442,-12.94 -15.442,-23.505 0,-14.163 11.523,-25.682 25.681,-25.682 l 65.631,0 c 14.158,0 25.676,11.519 25.676,25.682 0,10.332 -6.346,19.616 -15.797,23.646 1.295,12.051 -3.6,22.297 -14.012,29.104 C 11.842,-1.629 5.772,0 0,0 m 0,-3.912 c 5.684,0 10.782,-1.696 13.716,-3.611 6.888,-4.509 14.815,-13.16 11.8,-28.452 9.309,-2.566 16.24,-10.923 16.24,-21.029 0,-12.029 -9.743,-21.767 -21.768,-21.767 l -65.631,0 c -12.018,0 -21.767,9.738 -21.767,21.767 0,9.917 6.054,17.876 15.724,20.898 -0.835,4.49 -0.444,12.214 6.952,17.605 2.28,1.665 5.955,3.274 10.197,3.274 3.413,0 7.186,-1.038 10.902,-3.918 C -17.743,-7.489 -8.25,-3.912 0,-3.912"
         inkscape:connector-curvature="0" /></g><g
       transform="translate(327.1641,89.3555)"
       id="g64"><path
         id="path66"
         style="fill:#ffffff;fill-opacity:1;fill-rule:nonzero;stroke:none"
         d="m 0,0 c -6.09,0 -17.08,-1.92 -24.309,-14.33 -3.194,2.004 -6.622,3.017 -10.228,3.017 -5.731,0 -9.848,-2.555 -11.351,-3.657 -7.923,-5.771 -8.34,-13.833 -7.954,-17.856 -9.623,-3.645 -15.525,-12.024 -15.525,-22.223 0,-13.083 10.641,-23.723 23.724,-23.723 l 65.631,0 c 13.078,0 23.725,10.64 23.725,23.723 0,10.034 -6.487,18.998 -15.975,22.377 C 30.039,-17.488 22.05,-8.686 14.785,-3.935 11.879,-2.032 6.467,0 0,0 m 0,-1.957 c 5.684,0 10.782,-1.696 13.716,-3.611 6.888,-4.509 14.815,-13.16 11.8,-28.452 9.309,-2.566 16.24,-10.923 16.24,-21.029 0,-12.029 -9.743,-21.767 -21.768,-21.767 l -65.631,0 c -12.018,0 -21.767,9.738 -21.767,21.767 0,9.917 6.054,17.876 15.724,20.898 -0.835,4.49 -0.444,12.214 6.952,17.605 2.28,1.665 5.955,3.275 10.197,3.275 3.413,0 7.186,-1.039 10.902,-3.919 C -17.743,-5.534 -8.25,-1.957 0,-1.957"
         inkscape:connector-curvature="0" /></g><g
       transform="translate(322.332,63.5059)"
       id="g68"><path
         id="path70"
         style="fill:#ffffff;fill-opacity:1;fill-rule:nonzero;stroke:none"
         d="m 0,0 c 0,1.17 0.955,2.121 2.121,2.121 1.17,0 2.124,-0.951 2.124,-2.116 l 0,-14.525 L 0,-14.52 0,0 Z"
         inkscape:connector-curvature="0" /></g><g
       transform="translate(304.2207,65.627)"
       id="g72"><path
         id="path74"
         style="fill:#ffffff;fill-opacity:1;fill-rule:nonzero;stroke:none"
         d="m 0,0 c 1.177,0 2.126,-0.951 2.126,-2.121 l 0,-14.521 -4.245,0 0,14.521 C -2.119,-0.951 -1.169,0 0,0"
         inkscape:connector-curvature="0" /></g><g
       transform="translate(303.4111,40.0166)"
       id="g76"><path
         id="path78"
         style="fill:#ffffff;fill-opacity:1;fill-rule:nonzero;stroke:none"
         d="m 0,0 c 0,0.269 0.217,0.486 0.483,0.486 l 20.883,0 c 0.274,0 0.49,-0.22 0.49,-0.489 0.006,-0.271 -0.216,-0.487 -0.49,-0.487 l -20.883,0 C 0.217,-0.49 0,-0.274 0,0 m 0,-3.226 c 0,0.272 0.217,0.494 0.483,0.492 l 20.883,0.004 c 0.274,-0.002 0.496,-0.221 0.49,-0.496 0.006,-0.271 -0.216,-0.49 -0.49,-0.49 l -20.878,0 C 0.217,-3.716 0,-3.497 0,-3.226 m 1.874,-3.219 c 0,0.271 0.222,0.49 0.487,0.49 l 17.128,0 c 0.272,0 0.494,-0.219 0.494,-0.49 0,-0.272 -0.222,-0.489 -0.488,-0.489 l -17.134,0 c -0.265,0 -0.487,0.217 -0.487,0.489 M -6.857,7.176 -6.853,3.263 C -6.857,3.172 -6.784,3.097 -6.69,3.097 l 1.143,0 0,-5.873 c 0,-6.044 4.564,-11.02 10.438,-11.67 l 0,-1.163 c 0,-1.963 1.325,-3.602 3.118,-4.116 l 0,-8.78 c 1.857,0.459 3.744,0.741 5.69,0.777 0.05,0 0.094,-0.007 0.144,-0.007 l 0,8.01 c 1.798,0.514 3.124,2.153 3.124,4.116 l 0,1.163 c 5.873,0.653 10.436,5.626 10.436,11.67 l 0,5.878 1.144,-0.002 c 0.089,-0.003 0.161,0.072 0.161,0.16 l 0,3.916 c 0,0.088 -0.072,0.165 -0.161,0.165 L -6.69,7.344 C -6.784,7.341 -6.853,7.264 -6.857,7.176"
         inkscape:connector-curvature="0" /></g></g></svg>