<?xml version="1.0" encoding="utf-8"?>
<!-- Generator: Adobe Illustrator 16.0.4, SVG Export Plug-In . SVG Version: 6.00 Build 0)  -->
<!DOCTYPE svg PUBLIC "-//W3C//DTD SVG 1.1//EN" "http://www.w3.org/Graphics/SVG/1.1/DTD/svg11.dtd">
<svg version="1.1" id="Ebene_1" xmlns="http://www.w3.org/2000/svg" xmlns:xlink="http://www.w3.org/1999/xlink" x="0px" y="0px"
	 width="48px" height="48px" viewBox="0 0 48 48" enable-background="new 0 0 48 48" xml:space="preserve">
<g id="Ebene_1_1_" display="none">
	<rect display="inline" fill="#706F6F" width="48" height="48"/>
</g>
<g id="schloss" display="none">
	<g display="inline">
		<g>
			<path fill="#757575" d="M14.2,22.7h19.6c0.2,0,0.5,0.1,0.601,0.3c0.199,0.2,0.199,0.4,0.199,0.6v14.3
				c0,0.199-0.1,0.398-0.199,0.6c-0.199,0.2-0.399,0.3-0.601,0.3H14.2c-0.2,0-0.5-0.1-0.6-0.3c-0.2-0.2-0.2-0.4-0.2-0.6V23.5
				c0-0.2,0.1-0.4,0.2-0.6C13.8,22.8,14,22.7,14.2,22.7z M15.1,36.9h17.8V24.4H15.1V36.9z M29.3,20.9v-4.6c0-1.3-0.6-2.4-1.7-3.1
				C26.5,12.5,25.3,12,24,12s-2.5,0.4-3.7,1.1c-1.2,0.7-1.7,1.8-1.7,3.1v4.6h-1.8v-4.6c0-1.8,0.8-3.3,2.2-4.4c1.4-1.1,3-1.6,4.9-1.6
				s3.5,0.5,4.9,1.6c1.5,1.2,2.2,2.6,2.2,4.4v4.6h-1.7V20.9z"/>
		</g>
	</g>
</g>
<g id="schlüssel" display="none">
	<g display="inline">
		<g>
			<path fill="#757575" d="M26.3,27.4L24,29.8v3.5h-3.6V36.9h-3.6L15,38.7h-2.7c-0.6,0-1.1-0.2-1.5-0.601l-0.5-0.5
				C10.1,37.4,10,37.2,9.9,36.9C9.8,36.6,9.7,36.3,9.7,36.1v-1.8c0-0.5,0.2-1.1,0.6-1.5L21,22.1c-0.4-1-0.6-2-0.6-3
				c0-2.4,0.9-4.5,2.6-6.3c1.7-1.7,3.8-2.6,6.3-2.6s4.601,0.9,6.3,2.6c1.7,1.8,2.602,3.9,2.602,6.3c0,2.5-0.9,4.6-2.602,6.3
				c-0.8,0.8-1.8,1.398-2.8,1.898c-1.1,0.5-2.2,0.7-3.2,0.7S27.4,27.8,26.3,27.4z M11.6,34.3V36c0,0,0,0.1,0.1,0.3l0.5,0.5
				l0.3,0.101h1.9l1.8-1.801h2.5v-3.6h3.6V29l3.7-3.7l1.1,0.4c0.801,0.3,1.602,0.5,2.4,0.5c2,0,3.7-0.7,5-2.1c1.4-1.4,2.1-3.1,2.1-5
				s-0.699-3.6-2.1-5s-3-2.1-5-2.1s-3.7,0.7-5,2.1c-0.6,0.6-1.2,1.4-1.5,2.3c-0.4,0.9-0.6,1.8-0.6,2.7s0.2,1.7,0.5,2.5l0.4,1.1
				L11.7,33.9L11.6,34.3z M32.9,17.3c0,0.5-0.2,0.9-0.5,1.2C32.1,18.8,31.6,19,31.2,19c-0.5,0-0.9-0.2-1.2-0.5s-0.5-0.8-0.5-1.2
				c0-0.5,0.2-0.9,0.5-1.3s0.8-0.5,1.2-0.5c0.5,0,0.899,0.2,1.2,0.5C32.7,16.4,32.9,16.8,32.9,17.3z"/>
		</g>
	</g>
</g>
<g id="agents" display="none">
	<g display="inline">
		<g>
			<path fill="#757575" d="M24.5,15.5h11.9c0.5,0,0.898,0.2,1.3,0.5c0.3,0.4,0.5,0.8,0.5,1.2v16c0,0.5-0.2,0.899-0.5,1.3
				S36.9,35,36.4,35H11.6c-0.5,0-0.9-0.2-1.3-0.5c-0.4-0.3-0.5-0.8-0.5-1.3V13.8c0-0.5,0.2-0.9,0.5-1.3c0.3-0.4,0.8-0.5,1.3-0.5h8.9
				L24.5,15.5z M19.9,13.8h-8.3v1.8H22L19.9,13.8z M11.6,33.3h24.9v-16H11.6V33.3z"/>
		</g>
	</g>
</g>
<g>
	<linearGradient id="plate_1_" gradientUnits="userSpaceOnUse" x1="24.0005" y1="48" x2="24.0005" y2="4.882812e-04">
		<stop  offset="0" style="stop-color:#E20074"/>
		<stop  offset="0.2582" style="stop-color:#E50679"/>
		<stop  offset="0.596" style="stop-color:#EF1685"/>
		<stop  offset="0.9766" style="stop-color:#FE319A"/>
		<stop  offset="1" style="stop-color:#FF339C"/>
	</linearGradient>
	<path id="plate_21_" fill="url(#plate_1_)" d="M48,44.4c0,1.979-1.62,3.6-3.6,3.6H3.6C1.62,48,0,46.38,0,44.4L0.002,3.6
		c0-1.979,1.62-3.6,3.6-3.6H44.4C46.38,0,48,1.621,48,3.6V44.4z"/>
	<rect x="23.2" y="16.8" fill="#FEF4F9" width="1.6" height="4.8"/>
	<rect x="29.601" y="25.6" fill="#FEF4F9" width="1.601" height="4.801"/>
	<rect x="36.001" y="16.8" fill="#F39ECA" width="1.6" height="4.8"/>
	<rect x="16.802" y="25.6" fill="#FEF4F9" width="1.6" height="4.801"/>
	<rect x="10.4" y="16.8" fill="#F39ECA" width="1.601" height="4.8"/>
	<g opacity="0.4">
		<path fill="#E20074" d="M13.601,16.6c0,0.55-0.45,1-1,1h-2.8c-0.55,0-1-0.45-1-1V9c0-0.55,0.45-1,1-1h2.8c0.55,0,1,0.45,1,1V16.6z
			"/>
	</g>
	<g opacity="0.4">
		<path fill="#E20074" d="M20.002,40.6c0,0.55-0.45,1-1,1h-2.801c-0.55,0-1-0.45-1-1V33c0-0.55,0.45-1,1-1h2.801c0.55,0,1,0.45,1,1
			V40.6z"/>
	</g>
	<g opacity="0.4">
		<path fill="#E20074" d="M32.802,40.6c0,0.55-0.45,1-1,1h-2.8c-0.55,0-1-0.45-1-1V33c0-0.55,0.45-1,1-1h2.8c0.55,0,1,0.45,1,1V40.6
			z"/>
	</g>
	<g opacity="0.4">
		<path fill="#E20074" d="M26.401,16.6c0,0.55-0.45,1-1,1h-2.8c-0.55,0-1-0.45-1-1V9c0-0.55,0.45-1,1-1h2.8c0.55,0,1,0.45,1,1V16.6z
			"/>
	</g>
	<g opacity="0.4">
		<path fill="#E20074" d="M39.201,16.6c0,0.55-0.45,1-1,1h-2.8c-0.55,0-1-0.45-1-1V9c0-0.55,0.45-1,1-1h2.8c0.55,0,1,0.45,1,1V16.6z
			"/>
	</g>
	<g>
		<path fill="#F39ECA" d="M13.601,15.8c0,0.55-0.45,1-1,1h-2.8c-0.55,0-1-0.45-1-1V8.2c0-0.55,0.45-1,1-1h2.8c0.55,0,1,0.45,1,1
			V15.8z"/>
	</g>
	<g>
		<path fill="#FEF4F9" d="M26.4,15.8c0,0.55-0.45,1-1,1H22.6c-0.55,0-1-0.45-1-1V8.2c0-0.55,0.45-1,1-1H25.4c0.55,0,1,0.45,1,1V15.8
			z"/>
	</g>
	<g>
		<path fill="#F39ECA" d="M39.201,15.8c0,0.55-0.45,1-1,1H35.4c-0.55,0-1-0.45-1-1V8.2c0-0.55,0.45-1,1-1h2.801c0.55,0,1,0.45,1,1
			V15.8z"/>
	</g>
	<g>
		<path fill="#FEF4F9" d="M32.801,39.8c0,0.55-0.45,1-1,1h-2.8c-0.55,0-1-0.45-1-1v-7.6c0-0.55,0.45-1,1-1h2.8c0.55,0,1,0.45,1,1
			V39.8z"/>
	</g>
	<g>
		<path fill="#FEF4F9" d="M20.001,39.8c0,0.55-0.45,1-1,1h-2.8c-0.55,0-1-0.45-1-1v-7.6c0-0.55,0.45-1,1-1h2.8c0.55,0,1,0.45,1,1
			V39.8z"/>
	</g>
	<g opacity="0.4">
		<path fill="#E20074" d="M41.6,25.399c0,0.55-0.45,1-1,1H7.4c-0.55,0-1-0.45-1-1v-1.2c0-0.55,0.45-1,1-1H40.6c0.55,0,1,0.45,1,1
			V25.399z"/>
	</g>
	<g>
		<rect x="6.4" y="22.399" fill="#FAD9EB" width="35.199" height="3.2"/>
	</g>
</g>
</svg>
